<?xml version="1.0" encoding="utf-8"?>
<!-- Generator: Adobe Illustrator 12.0.0, SVG Export Plug-In . SVG Version: 6.00 Build 51448)  -->
<!DOCTYPE svg PUBLIC "-//W3C//DTD SVG 1.0//EN" "http://www.w3.org/TR/2001/REC-SVG-20010904/DTD/svg10.dtd" [
	<!ENTITY ns_svg "http://www.w3.org/2000/svg">
	<!ENTITY ns_xlink "http://www.w3.org/1999/xlink">
]>
<svg  version="1.0" id="Layer_1" xmlns="&ns_svg;" xmlns:xlink="&ns_xlink;" width="754.861" height="347.375"
	 viewBox="0 0 754.861 347.375" overflow="visible" enable-background="new 0 0 754.861 347.375" xml:space="preserve">
<g>
	<g>
		<g>
			<path fill="#FFFFFF" d="M238.365,12.705c-60.938,7.363-118.262,23.828-169.785,54.18C33.6,89.814,3.912,125.771,4.283,170.83
				c-2.441,45.059,24.824,82.734,60.195,106.172c121.895,71.016,279.141,73.066,425.41,60l15.273-1.289
				c0,0,224.063-16.387,243.945-141.113c8.184-50.156-15.293-93.535-54.414-120.371c-26.426-17.832-46.719-25.898-46.719-25.898
				c-121.465-46.855-260-51.133-394.082-37.246L238.365,12.705"/>
			<path fill="none" stroke="#49210B" stroke-width="8.2624" d="M238.365,12.705c-60.938,7.363-118.262,23.828-169.785,54.18
				C33.6,89.814,3.912,125.771,4.283,170.83c-2.441,45.059,24.824,82.734,60.195,106.172c121.895,71.016,279.141,73.066,425.41,60
				l15.273-1.289c0,0,224.063-16.387,243.945-141.113c8.184-50.156-15.293-93.535-54.414-120.371
				c-26.426-17.832-46.719-25.898-46.719-25.898c-121.465-46.855-260-51.133-394.082-37.246L238.365,12.705z"/>
		</g>
		<path fill="#8E4F1A" d="M610.963,131.689l40.469-52.285h-76.523c-4.551,3.691-2.949,9.531-1.953,15.723
			c-45.098-30.723-115.781-50.684-195.137-50.684c-39.629,0-77.09,4.922-110.176,13.75l-6.816-28.262
			c126.563-12.148,257.168-8.418,371.797,33.008c0,0,19.141,7.188,44.102,22.988c36.914,23.652,59.004,62.051,51.367,106.582
			c-18.828,110.254-230.215,124.727-230.215,124.727l-6.758-27.461c79.16-21.66,133.281-65.156,133.281-115.449
			C624.4,159.365,619.811,145.049,610.963,131.689"/>
		<path fill="#49210B" d="M267.643,212.041h-48.906c-9.668,16.484-36.484,30.664-25.02,51.719h-57.441
			c47.91-50.586,92.031-107.734,134.902-162.148c4.941-7.656-9.199-8.262-1.836-13.203h67.051l-9.219,85.605
			c-9.648,4.629-20.703,11.582-25.645,22.324c-2.324,6.543-3.457,16.836,1.113,22.988c3.828,6.836,11.523,10.293,18.438,12.617
			c-1.563,11.465,1.152,22.969,8.008,31.816h-86.25c3.477-9.648,19.141-10.332,21.094-22.539L267.643,212.041"/>
		<path fill="#FFFFFF" d="M245.494,181.396c7.715-11.973,19.219-24.98,28.379-37.578l-3.398,37.578H245.494"/>
		<path fill="#49210B" d="M491.275,270.713c-13.828-2.363-31.367-12.363-34.102-24.941c-2.891-12.539,5.313-46.035,7.988-69.004
			l-70.527,92.051c-13.828-1.211-29.98-11.875-34.102-21.914c-4.16-10.078-2.48-12.793-1.426-19.277
			c11.797-4.688,36.953-17.617,26.309-41.23c21.445-6.289,9.297-28.652,0.801-25.43c5.801-4.023,2.051-18.73-13.047-19.648
			c0.313-1.934,6.66-24.434,6.367-31.973c-0.313-8.984-7.773-14.355-3.496-20.938h60.762c-7.285,36.445-14.18,72.988-21.035,109.824
			c21.426-24.219,41.406-54.863,60.527-82.813c7.051-11.797,1.914-20.137,0-27.012h63.672
			c-21.836,31.836-18.457,74.551-27.695,111.328c23.828-26.445,47.285-58.652,67.91-88.887c5.762-6.934-3.027-17.5,3.125-22.441
			h48.262L491.275,270.713"/>
		<path fill="#D27B40" d="M390.162,170.771c-5.996-10.625-21.953,1.719-17.52,5.117c1.934,1.387,2.324,0.977,3.945-0.215
			c2.344-1.66,3.125-4.98,3.125-4.98c7.676-3.242,11.016,3.262,2.871,7.754c-4.551,2.52-8.691,2.188-12.578,1.797
			c-12.793-1.426-18.75,0.977-26.934,7.266c-4.551,4.023-8.633,10.762-5.215,15.293c3.301,4.492,10.332,3.301,15.273,2.52
			c5.859-2.695,8.184-7.773,5.586-10.547c-2.48-2.871-12.285-2.617-17.188,0.41c-0.078-4.746,4.238-7.383,9.063-8.789
			c5.938-1.152,15.488-1.484,19.219,5.566c2.227,8.184-5.762,15.078-10.82,17.852c-6.23,2.988-15.176,5.234-22.266,1.855
			c-5.645-1.855-9.668-8.867-7.813-14.492c3.516-13.184,18.477-25.469,33.281-21.055c0,0-8.613-2.754-9.434-7.91
			c-1.035-8.633,4.375-10.781,9.219-13.789c4.102-0.762,11.191-2.969,14.141,1.855c1.465,3.301-1.816,3.574-1.816,3.574
			c-3.008-3.535-6.758-2.109-9.102-1.152c-4.629,1.914-6.484,6.25-3.223,8.359c2.324,1.563,7.09,1.543,7.09,1.543
			c28.027-10.156-2.871-36.914-25.996-9.688c-3.75,4.727-3.75,11.855-3.398,17.051c-26.27,7.988-41.68,30.547-25.293,43.535
			c13.398,8.555,33.086,5.977,46.465,0c8.965-4.805,18.984-13.398,19.746-24.141c-0.098-0.137-0.137-0.176-0.176-0.215
			c0-5.313-2.832-8.809-5.059-10.801l-0.605-0.762C384.322,185.479,393.873,177.51,390.162,170.771"/>
		<path fill="#D27B40" d="M201.861,265.361c0.605,2.5,1.621,5.098,3.066,7.734H113.17c13.809-14.512,27.266-29.395,40.586-44.707
			c-14.395-16.484-22.52-34.668-22.52-54.063c0-47.852,49.297-89.746,122.656-112.344l-7.715-30.547
			c-57.5,6.543-111.582,21.113-160.254,47.969c-32.949,20.254-60.918,52.109-60.586,91.973
			c-2.227,39.902,23.418,73.203,56.797,93.984c114.98,62.754,263.359,64.629,401.367,53.086l-5.117-25.449
			c-30.723,7.246-64.746,11.23-100.566,11.23C308.854,304.229,246.627,289.307,201.861,265.361"/>
	</g>
</g>
</svg>
